<?xml version="1.0" encoding="utf-8"?>
<!-- Generator: Adobe Illustrator 24.0.2, SVG Export Plug-In . SVG Version: 6.00 Build 0)  -->
<svg version="1.0" id="Layer_1" xmlns="http://www.w3.org/2000/svg" xmlns:xlink="http://www.w3.org/1999/xlink" x="0px" y="0px"
	 viewBox="0 0 107 33" style="enable-background:new 0 0 107 33;" xml:space="preserve">
<style type="text/css">
	.st0{fill:#FFFFFF;}
</style>
<title>Bolby</title>
<desc>Created with Sketch.</desc>
<g>
	<path class="st0" d="M0.66,24.18V6.91h3.16v14.8h7.65v2.47H0.66z"/>
	<path class="st0" d="M15.88,10.05c-0.58,0-1.05-0.17-1.42-0.52c-0.37-0.35-0.56-0.78-0.56-1.31c0-0.53,0.18-0.96,0.56-1.29
		c0.37-0.34,0.84-0.51,1.42-0.51c0.58,0,1.05,0.17,1.42,0.51c0.37,0.34,0.56,0.77,0.56,1.29c0,0.53-0.18,0.96-0.56,1.31
		C16.93,9.87,16.46,10.05,15.88,10.05z M14.31,24.18V11.95h3.16v12.24H14.31z"/>
	<path class="st0" d="M20.77,24.18V6.42h3.16v17.76H20.77z"/>
	<path class="st0" d="M28.86,10.05c-0.58,0-1.05-0.17-1.42-0.52c-0.37-0.35-0.56-0.78-0.56-1.31c0-0.53,0.18-0.96,0.56-1.29
		c0.37-0.34,0.84-0.51,1.42-0.51c0.58,0,1.05,0.17,1.42,0.51c0.37,0.34,0.56,0.77,0.56,1.29c0,0.53-0.18,0.96-0.56,1.31
		C29.91,9.87,29.44,10.05,28.86,10.05z M27.28,24.18V11.95h3.16v12.24H27.28z"/>
	<path class="st0" d="M38.8,24.48c-1.09,0-2.04-0.18-2.86-0.53c-0.82-0.35-1.48-0.84-1.97-1.47c-0.49-0.62-0.79-1.35-0.89-2.17h3.18
		c0.1,0.48,0.37,0.88,0.8,1.22c0.44,0.34,1,0.51,1.69,0.51c0.69,0,1.2-0.14,1.52-0.42c0.32-0.28,0.48-0.6,0.48-0.96
		c0-0.53-0.23-0.88-0.69-1.07c-0.46-0.19-1.1-0.37-1.92-0.56c-0.53-0.12-1.06-0.26-1.6-0.42c-0.54-0.16-1.04-0.37-1.49-0.63
		c-0.45-0.25-0.82-0.58-1.1-0.99c-0.28-0.4-0.42-0.9-0.42-1.49c0-1.09,0.43-2,1.3-2.74c0.86-0.74,2.08-1.11,3.64-1.11
		c1.45,0,2.6,0.34,3.47,1.01c0.86,0.67,1.38,1.6,1.54,2.79h-2.99c-0.18-0.9-0.86-1.36-2.05-1.36c-0.59,0-1.05,0.12-1.37,0.35
		c-0.32,0.23-0.48,0.52-0.48,0.86c0,0.36,0.24,0.65,0.72,0.86c0.48,0.21,1.11,0.41,1.9,0.59c0.86,0.2,1.64,0.42,2.36,0.65
		c0.72,0.24,1.29,0.59,1.72,1.06c0.43,0.47,0.64,1.14,0.64,2.01c0.02,0.76-0.18,1.44-0.59,2.05c-0.41,0.61-1,1.08-1.78,1.43
		S39.86,24.48,38.8,24.48z"/>
	<path class="st0" d="M52.64,24.18V6.91h3.16v17.27H52.64z"/>
	<path class="st0" d="M65.08,24.48c-1.25,0-2.35-0.27-3.31-0.81c-0.95-0.54-1.71-1.3-2.26-2.27c-0.55-0.97-0.83-2.08-0.83-3.33
		c0-1.25,0.28-2.36,0.83-3.33c0.55-0.97,1.3-1.73,2.26-2.27c0.95-0.54,2.06-0.81,3.31-0.81c1.56,0,2.88,0.41,3.95,1.22
		c1.07,0.81,1.75,1.94,2.05,3.37h-3.33c-0.16-0.59-0.49-1.06-0.97-1.39c-0.49-0.34-1.06-0.51-1.72-0.51c-0.87,0-1.61,0.33-2.22,0.99
		c-0.61,0.66-0.91,1.57-0.91,2.74c0,1.17,0.3,2.08,0.91,2.74c0.61,0.66,1.35,0.99,2.22,0.99c0.66,0,1.23-0.16,1.72-0.49
		c0.49-0.33,0.81-0.8,0.97-1.41h3.33c-0.3,1.38-0.98,2.49-2.05,3.33C67.96,24.06,66.64,24.48,65.08,24.48z"/>
	<path class="st0" d="M79.88,24.48c-1.25,0-2.35-0.27-3.31-0.81c-0.95-0.54-1.71-1.3-2.26-2.27c-0.55-0.97-0.83-2.08-0.83-3.33
		c0-1.25,0.28-2.36,0.83-3.33c0.55-0.97,1.3-1.73,2.26-2.27c0.95-0.54,2.06-0.81,3.31-0.81c1.56,0,2.88,0.41,3.95,1.22
		c1.07,0.81,1.75,1.94,2.05,3.37h-3.33c-0.16-0.59-0.49-1.06-0.97-1.39c-0.49-0.34-1.06-0.51-1.72-0.51c-0.87,0-1.61,0.33-2.22,0.99
		c-0.61,0.66-0.91,1.57-0.91,2.74c0,1.17,0.3,2.08,0.91,2.74c0.61,0.66,1.35,0.99,2.22,0.99c0.66,0,1.23-0.16,1.72-0.49
		c0.49-0.33,0.81-0.8,0.97-1.41h3.33c-0.3,1.38-0.98,2.49-2.05,3.33C82.76,24.06,81.44,24.48,79.88,24.48z"/>
	<path class="st0" d="M92.91,24.48c-1.05,0-1.92-0.17-2.59-0.51c-0.67-0.34-1.18-0.79-1.5-1.34c-0.33-0.56-0.49-1.18-0.49-1.85
		c0-1.14,0.44-2.06,1.33-2.76c0.89-0.71,2.22-1.06,4-1.06h3.11v-0.3c0-0.84-0.24-1.46-0.72-1.85c-0.48-0.39-1.07-0.59-1.78-0.59
		c-0.64,0-1.2,0.15-1.68,0.46c-0.48,0.3-0.77,0.75-0.89,1.34h-3.08c0.08-0.89,0.38-1.66,0.9-2.32c0.52-0.66,1.19-1.16,2.01-1.52
		c0.82-0.35,1.74-0.53,2.76-0.53c1.74,0,3.12,0.44,4.12,1.31c1,0.87,1.5,2.11,1.5,3.7v7.52h-2.69l-0.3-1.97
		c-0.36,0.66-0.87,1.2-1.52,1.63C94.76,24.27,93.93,24.48,92.91,24.48z M93.62,22.01c0.9,0,1.61-0.3,2.11-0.89
		c0.5-0.59,0.82-1.32,0.95-2.2h-2.69c-0.84,0-1.44,0.15-1.8,0.46c-0.36,0.3-0.54,0.68-0.54,1.12c0,0.48,0.18,0.85,0.54,1.11
		C92.55,21.88,93.03,22.01,93.62,22.01z"/>
	<path class="st0" d="M104.28,24.36c-0.58,0-1.05-0.18-1.42-0.54c-0.37-0.36-0.56-0.8-0.56-1.31c0-0.53,0.19-0.97,0.56-1.33
		c0.37-0.36,0.84-0.54,1.42-0.54c0.57,0,1.05,0.18,1.42,0.54c0.37,0.36,0.55,0.81,0.55,1.33c0,0.51-0.18,0.95-0.55,1.31
		C105.33,24.17,104.86,24.36,104.28,24.36z"/>
</g>
</svg>
